#N canvas 0 0 1026 872 10;
#X msg 440 28 \; pd dsp 1;
#X msg 357 28 \; pd dsp 0;
#X text 438 7 On;
#X text 357 9 Off;
#X obj 506 5 t b b;
#N canvas 135 16 1010 515 jujenerator 1;
#N canvas 289 0 759 528 legrosprogramme 0;
#N canvas 0 0 1440 872 A...BA 0;
#X obj 394 197 dac~;
#X obj 395 149 readsf~ 2 44100;
#X obj 482 171 bng 15 250 50 0 empty empty empty 17 7 0 10 #fcfcfc
#000000 #000000;
#X msg 467 124 1;
#X obj 396 103 t b b;
#X obj 388 309 dac~;
#X obj 469 287 bng 15 250 50 0 empty empty empty 17 7 0 10 #fcfcfc
#000000 #000000;
#X msg 466 243 1;
#X obj 391 220 t b b;
#X obj 391 264 readsf~ 2 44100;
#X obj 388 416 dac~;
#X obj 389 374 readsf~ 2 44100;
#X obj 468 396 bng 15 250 50 0 empty empty empty 17 7 0 10 #fcfcfc
#000000 #000000;
#X msg 483 353 1;
#X obj 389 330 t b b;
#X msg 394 124 open A.wav;
#X msg 388 241 open AB.wav;
#X msg 388 353 open AIENT.wav;
#X obj 385 523 dac~;
#X obj 386 480 readsf~ 2 44100;
#X obj 465 500 bng 15 250 50 0 empty empty empty 17 7 0 10 #fcfcfc
#000000 #000000;
#X msg 471 459 1;
#X obj 387 438 t b b;
#X msg 387 459 open AIR.wav;
#X obj 384 631 dac~;
#X obj 383 587 readsf~ 2 44100;
#X obj 466 608 bng 15 250 50 0 empty empty empty 17 7 0 10 #fcfcfc
#000000 #000000;
#X msg 465 566 1;
#X obj 384 544 t b b;
#X msg 384 565 open AM.wav;
#X obj 793 202 dac~;
#X obj 796 157 readsf~ 2 44100;
#X obj 878 177 bng 15 250 50 0 empty empty empty 17 7 0 10 #fcfcfc
#000000 #000000;
#X msg 876 136 1;
#X obj 798 115 t b b;
#X msg 796 136 open AN.wav;
#X obj 791 308 dac~;
#X obj 791 267 readsf~ 2 44100;
#X obj 874 288 bng 15 250 50 0 empty empty empty 17 7 0 10 #fcfcfc
#000000 #000000;
#X msg 878 246 1;
#X obj 792 223 t b b;
#X msg 791 245 open ANT.wav;
#X obj 790 416 dac~;
#X obj 789 373 readsf~ 2 44100;
#X obj 869 393 bng 15 250 50 0 empty empty empty 17 7 0 10 #fcfcfc
#000000 #000000;
#X msg 868 351 1;
#X obj 791 329 t b b;
#X msg 790 351 open AR.wav;
#X obj 788 515 dac~;
#X obj 786 476 readsf~ 2 44100;
#X obj 862 499 bng 15 250 50 0 empty empty empty 17 7 0 10 #fcfcfc
#000000 #000000;
#X msg 863 455 1;
#X obj 789 435 t b b;
#X msg 787 455 open AU.wav;
#X obj 788 620 dac~;
#X obj 788 576 readsf~ 2 44100;
#X obj 865 595 bng 15 250 50 0 empty empty empty 17 7 0 10 #fcfcfc
#000000 #000000;
#X msg 864 555 1;
#X obj 788 535 t b b;
#X msg 788 554 open BA.wav;
#X obj 541 304 inlet;
#X obj 483 193 s fin;
#X obj 468 309 s fin;
#X obj 475 422 s fin;
#X obj 469 531 s fin;
#X obj 463 640 s fin;
#X obj 879 207 s fin;
#X obj 875 319 s fin;
#X obj 871 421 s fin;
#X obj 866 521 s fin;
#X obj 866 618 s fin;
#X obj 531 329 route A AB AIENT AIR AM AN ANT AR AU BA;
#X connect 1 0 0 0;
#X connect 1 1 0 1;
#X connect 1 2 2 0;
#X connect 2 0 61 0;
#X connect 3 0 1 0;
#X connect 4 0 3 0;
#X connect 4 1 15 0;
#X connect 6 0 62 0;
#X connect 7 0 9 0;
#X connect 8 0 7 0;
#X connect 8 1 16 0;
#X connect 9 0 5 0;
#X connect 9 1 5 1;
#X connect 9 2 6 0;
#X connect 11 0 10 0;
#X connect 11 1 10 1;
#X connect 11 2 12 0;
#X connect 12 0 63 0;
#X connect 13 0 11 0;
#X connect 14 0 13 0;
#X connect 14 1 17 0;
#X connect 15 0 1 0;
#X connect 16 0 9 0;
#X connect 17 0 11 0;
#X connect 19 0 18 0;
#X connect 19 1 18 1;
#X connect 19 2 20 0;
#X connect 20 0 64 0;
#X connect 21 0 19 0;
#X connect 22 0 21 0;
#X connect 22 1 23 0;
#X connect 23 0 19 0;
#X connect 25 0 24 0;
#X connect 25 1 24 1;
#X connect 25 2 26 0;
#X connect 26 0 65 0;
#X connect 27 0 25 0;
#X connect 28 0 27 0;
#X connect 28 1 29 0;
#X connect 29 0 25 0;
#X connect 31 0 30 0;
#X connect 31 1 30 1;
#X connect 31 2 32 0;
#X connect 32 0 66 0;
#X connect 33 0 31 0;
#X connect 34 0 33 0;
#X connect 34 1 35 0;
#X connect 35 0 31 0;
#X connect 37 0 36 0;
#X connect 37 1 36 1;
#X connect 37 2 38 0;
#X connect 38 0 67 0;
#X connect 39 0 37 0;
#X connect 40 0 39 0;
#X connect 40 1 41 0;
#X connect 41 0 37 0;
#X connect 43 0 42 0;
#X connect 43 1 42 1;
#X connect 43 2 44 0;
#X connect 44 0 68 0;
#X connect 45 0 43 0;
#X connect 46 0 45 0;
#X connect 46 1 47 0;
#X connect 47 0 43 0;
#X connect 49 0 48 0;
#X connect 49 1 48 1;
#X connect 49 2 50 0;
#X connect 50 0 69 0;
#X connect 51 0 49 0;
#X connect 52 0 51 0;
#X connect 52 1 53 0;
#X connect 53 0 49 0;
#X connect 55 0 54 0;
#X connect 55 1 54 1;
#X connect 55 2 56 0;
#X connect 56 0 70 0;
#X connect 57 0 55 0;
#X connect 58 0 57 0;
#X connect 58 1 59 0;
#X connect 59 0 55 0;
#X connect 60 0 71 0;
#X connect 71 0 4 0;
#X connect 71 1 8 0;
#X connect 71 2 14 0;
#X connect 71 3 22 0;
#X connect 71 4 28 0;
#X connect 71 5 34 0;
#X connect 71 6 40 0;
#X connect 71 7 46 0;
#X connect 71 8 52 0;
#X connect 71 9 58 0;
#X restore 65 119 pd A...BA;
#N canvas 0 0 1440 872 BI...CAL 0;
#X obj 511 138 dac~;
#X obj 512 90 readsf~ 2 44100;
#X obj 599 112 bng 15 250 50 0 empty empty empty 17 7 0 10 #fcfcfc
#000000 #000000;
#X msg 584 65 1;
#X obj 505 250 dac~;
#X obj 586 228 bng 15 250 50 0 empty empty empty 17 7 0 10 #fcfcfc
#000000 #000000;
#X msg 583 184 1;
#X obj 508 161 t b b;
#X obj 508 205 readsf~ 2 44100;
#X obj 505 357 dac~;
#X obj 506 315 readsf~ 2 44100;
#X obj 585 337 bng 15 250 50 0 empty empty empty 17 7 0 10 #fcfcfc
#000000 #000000;
#X msg 600 294 1;
#X obj 506 271 t b b;
#X obj 502 464 dac~;
#X obj 503 421 readsf~ 2 44100;
#X obj 582 441 bng 15 250 50 0 empty empty empty 17 7 0 10 #fcfcfc
#000000 #000000;
#X msg 588 400 1;
#X obj 504 379 t b b;
#X obj 501 572 dac~;
#X obj 500 528 readsf~ 2 44100;
#X obj 583 549 bng 15 250 50 0 empty empty empty 17 7 0 10 #fcfcfc
#000000 #000000;
#X msg 582 507 1;
#X obj 501 485 t b b;
#X obj 901 142 dac~;
#X obj 904 97 readsf~ 2 44100;
#X obj 986 117 bng 15 250 50 0 empty empty empty 17 7 0 10 #fcfcfc
#000000 #000000;
#X msg 984 76 1;
#X obj 906 55 t b b;
#X obj 902 248 dac~;
#X obj 903 208 readsf~ 2 44100;
#X obj 985 228 bng 15 250 50 0 empty empty empty 17 7 0 10 #fcfcfc
#000000 #000000;
#X msg 989 186 1;
#X obj 903 163 t b b;
#X obj 901 356 dac~;
#X obj 900 313 readsf~ 2 44100;
#X obj 980 333 bng 15 250 50 0 empty empty empty 17 7 0 10 #fcfcfc
#000000 #000000;
#X msg 979 291 1;
#X obj 902 269 t b b;
#X obj 899 455 dac~;
#X obj 897 416 readsf~ 2 44100;
#X obj 973 439 bng 15 250 50 0 empty empty empty 17 7 0 10 #fcfcfc
#000000 #000000;
#X msg 974 395 1;
#X obj 900 375 t b b;
#X obj 899 560 dac~;
#X obj 899 516 readsf~ 2 44100;
#X obj 976 535 bng 15 250 50 0 empty empty empty 17 7 0 10 #fcfcfc
#000000 #000000;
#X msg 975 495 1;
#X obj 899 475 t b b;
#X obj 639 242 inlet;
#X obj 601 134 s fin;
#X obj 591 249 s fin;
#X obj 592 363 s fin;
#X obj 586 472 s fin;
#X obj 580 581 s fin;
#X obj 987 147 s fin;
#X obj 986 259 s fin;
#X obj 982 361 s fin;
#X obj 977 461 s fin;
#X obj 977 558 s fin;
#X msg 511 65 open BI.wav;
#X msg 505 182 open BLE.wav;
#X msg 505 294 open BOU.wav;
#X msg 504 400 open BRA.wav;
#X msg 501 506 open BRAN.wav;
#X msg 904 76 open BU.wav;
#X msg 902 185 open C'.wav;
#X msg 901 291 open CA.wav;
#X msg 898 395 open ÇA.wav;
#X msg 899 494 open CAL.wav;
#X obj 638 268 route BI BLE BOU BRA BRAN BU C' CA ÇA CAL;
#X connect 1 0 0 0;
#X connect 1 1 0 1;
#X connect 1 2 2 0;
#X connect 2 0 50 0;
#X connect 3 0 1 0;
#X connect 5 0 51 0;
#X connect 6 0 8 0;
#X connect 7 0 6 0;
#X connect 7 1 61 0;
#X connect 8 0 4 0;
#X connect 8 1 4 1;
#X connect 8 2 5 0;
#X connect 10 0 9 0;
#X connect 10 1 9 1;
#X connect 10 2 11 0;
#X connect 11 0 52 0;
#X connect 12 0 10 0;
#X connect 13 0 12 0;
#X connect 13 1 62 0;
#X connect 15 0 14 0;
#X connect 15 1 14 1;
#X connect 15 2 16 0;
#X connect 16 0 53 0;
#X connect 17 0 15 0;
#X connect 18 0 17 0;
#X connect 18 1 63 0;
#X connect 20 0 19 0;
#X connect 20 1 19 1;
#X connect 20 2 21 0;
#X connect 21 0 54 0;
#X connect 22 0 20 0;
#X connect 23 0 22 0;
#X connect 23 1 64 0;
#X connect 25 0 24 0;
#X connect 25 1 24 1;
#X connect 25 2 26 0;
#X connect 26 0 55 0;
#X connect 27 0 25 0;
#X connect 28 0 27 0;
#X connect 28 1 65 0;
#X connect 30 0 29 0;
#X connect 30 1 29 1;
#X connect 30 2 31 0;
#X connect 31 0 56 0;
#X connect 32 0 30 0;
#X connect 33 0 32 0;
#X connect 33 1 66 0;
#X connect 35 0 34 0;
#X connect 35 1 34 1;
#X connect 35 2 36 0;
#X connect 36 0 57 0;
#X connect 37 0 35 0;
#X connect 38 0 37 0;
#X connect 38 1 67 0;
#X connect 40 0 39 0;
#X connect 40 1 39 1;
#X connect 40 2 41 0;
#X connect 41 0 58 0;
#X connect 42 0 40 0;
#X connect 43 0 42 0;
#X connect 43 1 68 0;
#X connect 45 0 44 0;
#X connect 45 1 44 1;
#X connect 45 2 46 0;
#X connect 46 0 59 0;
#X connect 47 0 45 0;
#X connect 48 0 47 0;
#X connect 48 1 69 0;
#X connect 49 0 70 0;
#X connect 60 0 1 0;
#X connect 61 0 8 0;
#X connect 62 0 10 0;
#X connect 63 0 15 0;
#X connect 64 0 20 0;
#X connect 65 0 25 0;
#X connect 66 0 30 0;
#X connect 67 0 35 0;
#X connect 68 0 40 0;
#X connect 69 0 45 0;
#X connect 70 1 7 0;
#X connect 70 2 13 0;
#X connect 70 3 18 0;
#X connect 70 4 23 0;
#X connect 70 5 28 0;
#X connect 70 6 33 0;
#X connect 70 7 38 0;
#X connect 70 8 43 0;
#X connect 70 9 48 0;
#X restore 135 120 pd BI...CAL;
#N canvas 0 0 1440 872 CAR...D' 0;
#X obj 397 224 dac~;
#X obj 398 176 readsf~ 2 44100;
#X obj 485 198 bng 15 250 50 0 empty empty empty 17 7 0 10 #fcfcfc
#000000 #000000;
#X msg 480 152 1;
#X obj 391 336 dac~;
#X obj 472 314 bng 15 250 50 0 empty empty empty 17 7 0 10 #fcfcfc
#000000 #000000;
#X msg 469 270 1;
#X obj 394 247 t b b;
#X obj 394 291 readsf~ 2 44100;
#X obj 391 443 dac~;
#X obj 392 401 readsf~ 2 44100;
#X obj 471 423 bng 15 250 50 0 empty empty empty 17 7 0 10 #fcfcfc
#000000 #000000;
#X msg 486 380 1;
#X obj 392 357 t b b;
#X obj 388 550 dac~;
#X obj 389 507 readsf~ 2 44100;
#X obj 468 527 bng 15 250 50 0 empty empty empty 17 7 0 10 #fcfcfc
#000000 #000000;
#X msg 474 486 1;
#X obj 390 465 t b b;
#X obj 387 658 dac~;
#X obj 386 614 readsf~ 2 44100;
#X obj 469 635 bng 15 250 50 0 empty empty empty 17 7 0 10 #fcfcfc
#000000 #000000;
#X msg 468 593 1;
#X obj 387 571 t b b;
#X obj 787 228 dac~;
#X obj 790 183 readsf~ 2 44100;
#X obj 872 203 bng 15 250 50 0 empty empty empty 17 7 0 10 #fcfcfc
#000000 #000000;
#X msg 870 162 1;
#X obj 792 124 t b b;
#X obj 787 442 dac~;
#X obj 786 399 readsf~ 2 44100;
#X obj 866 419 bng 15 250 50 0 empty empty empty 17 7 0 10 #fcfcfc
#000000 #000000;
#X msg 865 377 1;
#X obj 788 355 t b b;
#X obj 785 541 dac~;
#X obj 783 502 readsf~ 2 44100;
#X obj 859 525 bng 15 250 50 0 empty empty empty 17 7 0 10 #fcfcfc
#000000 #000000;
#X msg 860 481 1;
#X obj 786 461 t b b;
#X obj 525 328 inlet;
#X obj 487 220 s fin;
#X obj 477 335 s fin;
#X obj 478 449 s fin;
#X obj 472 558 s fin;
#X obj 466 667 s fin;
#X obj 873 233 s fin;
#X obj 868 447 s fin;
#X obj 863 547 s fin;
#X msg 397 151 open CAR.wav;
#X msg 391 268 open CÉ.wav;
#X msg 391 380 open CHI.wav;
#X msg 390 486 open CI.wav;
#X msg 387 592 open COM.wav;
#X msg 787 377 open CTI.wav;
#X msg 784 481 open D'.wav;
#X obj 408 117 t b b;
#X msg 779 158 open CON__.wav;
#X obj 784 653 dac~;
#X obj 782 614 readsf~ 2 44100;
#X obj 858 637 bng 15 250 50 0 empty empty empty 17 7 0 10 #fcfcfc
#000000 #000000;
#X msg 859 593 1;
#X obj 785 573 t b b;
#X obj 862 659 s fin;
#X msg 783 593 open D'.wav;
#X obj 524 354 route CAR CÉ CHI CI COM CON COU CRÉ CTI D';
#X obj 822 333 dac~;
#X obj 825 288 readsf~ 2 44100;
#X obj 907 308 bng 15 250 50 0 empty empty empty 17 7 0 10 #fcfcfc
#000000 #000000;
#X msg 902 263 1;
#X obj 827 229 t b b;
#X obj 908 338 s fin;
#X msg 814 263 open CRÉ.wav;
#X connect 1 0 0 0;
#X connect 1 1 0 1;
#X connect 1 2 2 0;
#X connect 2 0 40 0;
#X connect 3 0 1 0;
#X connect 5 0 41 0;
#X connect 6 0 8 0;
#X connect 7 0 6 0;
#X connect 7 1 49 0;
#X connect 8 0 4 0;
#X connect 8 1 4 1;
#X connect 8 2 5 0;
#X connect 10 0 9 0;
#X connect 10 1 9 1;
#X connect 10 2 11 0;
#X connect 11 0 42 0;
#X connect 12 0 10 0;
#X connect 13 0 12 0;
#X connect 13 1 50 0;
#X connect 15 0 14 0;
#X connect 15 1 14 1;
#X connect 15 2 16 0;
#X connect 16 0 43 0;
#X connect 17 0 15 0;
#X connect 18 0 17 0;
#X connect 18 1 51 0;
#X connect 20 0 19 0;
#X connect 20 1 19 1;
#X connect 20 2 21 0;
#X connect 21 0 44 0;
#X connect 22 0 20 0;
#X connect 23 0 22 0;
#X connect 23 1 52 0;
#X connect 25 0 24 0;
#X connect 25 1 24 1;
#X connect 25 2 26 0;
#X connect 26 0 45 0;
#X connect 27 0 25 0;
#X connect 28 0 27 0;
#X connect 28 1 56 0;
#X connect 30 0 29 0;
#X connect 30 1 29 1;
#X connect 30 2 31 0;
#X connect 31 0 46 0;
#X connect 32 0 30 0;
#X connect 33 0 32 0;
#X connect 33 1 53 0;
#X connect 35 0 34 0;
#X connect 35 1 34 1;
#X connect 35 2 36 0;
#X connect 36 0 47 0;
#X connect 37 0 35 0;
#X connect 38 0 37 0;
#X connect 38 1 54 0;
#X connect 39 0 64 0;
#X connect 48 0 1 0;
#X connect 49 0 8 0;
#X connect 50 0 10 0;
#X connect 51 0 15 0;
#X connect 52 0 20 0;
#X connect 53 0 30 0;
#X connect 54 0 35 0;
#X connect 55 0 3 0;
#X connect 55 1 48 0;
#X connect 56 0 25 0;
#X connect 58 0 57 0;
#X connect 58 1 57 1;
#X connect 58 2 59 0;
#X connect 59 0 62 0;
#X connect 60 0 58 0;
#X connect 61 0 60 0;
#X connect 61 1 63 0;
#X connect 63 0 58 0;
#X connect 64 0 55 0;
#X connect 64 1 7 0;
#X connect 64 2 13 0;
#X connect 64 3 18 0;
#X connect 64 4 23 0;
#X connect 64 5 28 0;
#X connect 64 6 61 0;
#X connect 64 7 69 0;
#X connect 64 8 33 0;
#X connect 64 9 38 0;
#X connect 66 0 65 0;
#X connect 66 1 65 1;
#X connect 66 2 67 0;
#X connect 67 0 70 0;
#X connect 68 0 66 0;
#X connect 69 0 68 0;
#X connect 69 1 71 0;
#X connect 71 0 66 0;
#X restore 218 120 pd CAR...D';
#N canvas 0 0 1440 872 DA...ÉP 0;
#X obj 395 218 dac~;
#X obj 396 170 readsf~ 2 44100;
#X obj 483 192 bng 15 250 50 0 empty empty empty 17 7 0 10 #fcfcfc
#000000 #000000;
#X msg 468 145 1;
#X obj 389 330 dac~;
#X obj 470 308 bng 15 250 50 0 empty empty empty 17 7 0 10 #fcfcfc
#000000 #000000;
#X msg 467 264 1;
#X obj 392 241 t b b;
#X obj 392 285 readsf~ 2 44100;
#X obj 389 437 dac~;
#X obj 390 395 readsf~ 2 44100;
#X obj 469 417 bng 15 250 50 0 empty empty empty 17 7 0 10 #fcfcfc
#000000 #000000;
#X msg 484 374 1;
#X obj 390 351 t b b;
#X obj 386 544 dac~;
#X obj 387 501 readsf~ 2 44100;
#X obj 466 521 bng 15 250 50 0 empty empty empty 17 7 0 10 #fcfcfc
#000000 #000000;
#X msg 472 480 1;
#X obj 388 459 t b b;
#X obj 385 652 dac~;
#X obj 384 608 readsf~ 2 44100;
#X obj 467 629 bng 15 250 50 0 empty empty empty 17 7 0 10 #fcfcfc
#000000 #000000;
#X msg 466 587 1;
#X obj 385 565 t b b;
#X obj 785 222 dac~;
#X obj 788 177 readsf~ 2 44100;
#X obj 870 197 bng 15 250 50 0 empty empty empty 17 7 0 10 #fcfcfc
#000000 #000000;
#X msg 868 156 1;
#X obj 790 135 t b b;
#X obj 786 328 dac~;
#X obj 786 287 readsf~ 2 44100;
#X obj 869 308 bng 15 250 50 0 empty empty empty 17 7 0 10 #fcfcfc
#000000 #000000;
#X msg 873 266 1;
#X obj 787 243 t b b;
#X obj 785 436 dac~;
#X obj 784 393 readsf~ 2 44100;
#X obj 864 413 bng 15 250 50 0 empty empty empty 17 7 0 10 #fcfcfc
#000000 #000000;
#X msg 863 371 1;
#X obj 786 349 t b b;
#X obj 783 535 dac~;
#X obj 781 496 readsf~ 2 44100;
#X obj 857 519 bng 15 250 50 0 empty empty empty 17 7 0 10 #fcfcfc
#000000 #000000;
#X msg 858 475 1;
#X obj 784 455 t b b;
#X obj 783 640 dac~;
#X obj 783 596 readsf~ 2 44100;
#X obj 860 615 bng 15 250 50 0 empty empty empty 17 7 0 10 #fcfcfc
#000000 #000000;
#X msg 859 575 1;
#X obj 783 555 t b b;
#X obj 523 322 inlet;
#X obj 485 214 s fin;
#X obj 475 329 s fin;
#X obj 476 443 s fin;
#X obj 470 552 s fin;
#X obj 464 661 s fin;
#X obj 871 227 s fin;
#X obj 870 339 s fin;
#X obj 866 441 s fin;
#X obj 861 541 s fin;
#X obj 861 638 s fin;
#X msg 395 145 open DA.wav;
#X msg 389 262 open DAN.wav;
#X msg 389 374 open DE.wav;
#X msg 388 480 open DÉ.wav;
#X msg 385 586 open DES.wav;
#X msg 788 156 open DÉS.wav;
#X msg 786 265 open DOI.wav;
#X msg 785 371 open É.wav;
#X msg 782 475 open EN.wav;
#X msg 783 574 open ÉP.wav;
#X obj 522 347 route DA DAN DE DÉ DES DÉS DOI É EN ÉP;
#X obj 401 120 t b b;
#X connect 1 0 0 0;
#X connect 1 1 0 1;
#X connect 1 2 2 0;
#X connect 2 0 50 0;
#X connect 3 0 1 0;
#X connect 5 0 51 0;
#X connect 6 0 8 0;
#X connect 7 0 6 0;
#X connect 7 1 61 0;
#X connect 8 0 4 0;
#X connect 8 1 4 1;
#X connect 8 2 5 0;
#X connect 10 0 9 0;
#X connect 10 1 9 1;
#X connect 10 2 11 0;
#X connect 11 0 52 0;
#X connect 12 0 10 0;
#X connect 13 0 12 0;
#X connect 13 1 62 0;
#X connect 15 0 14 0;
#X connect 15 1 14 1;
#X connect 15 2 16 0;
#X connect 16 0 53 0;
#X connect 17 0 15 0;
#X connect 18 0 17 0;
#X connect 18 1 63 0;
#X connect 20 0 19 0;
#X connect 20 1 19 1;
#X connect 20 2 21 0;
#X connect 21 0 54 0;
#X connect 22 0 20 0;
#X connect 23 0 22 0;
#X connect 23 1 64 0;
#X connect 25 0 24 0;
#X connect 25 1 24 1;
#X connect 25 2 26 0;
#X connect 26 0 55 0;
#X connect 27 0 25 0;
#X connect 28 0 27 0;
#X connect 28 1 65 0;
#X connect 30 0 29 0;
#X connect 30 1 29 1;
#X connect 30 2 31 0;
#X connect 31 0 56 0;
#X connect 32 0 30 0;
#X connect 33 0 32 0;
#X connect 33 1 66 0;
#X connect 35 0 34 0;
#X connect 35 1 34 1;
#X connect 35 2 36 0;
#X connect 36 0 57 0;
#X connect 37 0 35 0;
#X connect 38 0 37 0;
#X connect 38 1 67 0;
#X connect 40 0 39 0;
#X connect 40 1 39 1;
#X connect 40 2 41 0;
#X connect 41 0 58 0;
#X connect 42 0 40 0;
#X connect 43 0 42 0;
#X connect 43 1 68 0;
#X connect 45 0 44 0;
#X connect 45 1 44 1;
#X connect 45 2 46 0;
#X connect 46 0 59 0;
#X connect 47 0 45 0;
#X connect 48 0 47 0;
#X connect 48 1 69 0;
#X connect 49 0 70 0;
#X connect 60 0 1 0;
#X connect 61 0 8 0;
#X connect 62 0 10 0;
#X connect 63 0 15 0;
#X connect 64 0 20 0;
#X connect 65 0 25 0;
#X connect 66 0 30 0;
#X connect 67 0 35 0;
#X connect 68 0 40 0;
#X connect 69 0 45 0;
#X connect 70 0 71 0;
#X connect 70 1 7 0;
#X connect 70 2 13 0;
#X connect 70 3 18 0;
#X connect 70 4 23 0;
#X connect 70 5 28 0;
#X connect 70 6 33 0;
#X connect 70 7 38 0;
#X connect 70 8 43 0;
#X connect 70 9 48 0;
#X connect 71 0 3 0;
#X connect 71 1 60 0;
#X restore 298 120 pd DA...ÉP;
#N canvas 0 0 1440 872 ÉS...GA 0;
#X obj 395 218 dac~;
#X obj 396 170 readsf~ 2 44100;
#X obj 483 192 bng 15 250 50 0 empty empty empty 17 7 0 10 #fcfcfc
#000000 #000000;
#X msg 468 145 1;
#X obj 389 330 dac~;
#X obj 470 308 bng 15 250 50 0 empty empty empty 17 7 0 10 #fcfcfc
#000000 #000000;
#X msg 467 264 1;
#X obj 392 241 t b b;
#X obj 392 285 readsf~ 2 44100;
#X obj 389 437 dac~;
#X obj 390 395 readsf~ 2 44100;
#X obj 469 417 bng 15 250 50 0 empty empty empty 17 7 0 10 #fcfcfc
#000000 #000000;
#X msg 484 374 1;
#X obj 390 351 t b b;
#X obj 386 544 dac~;
#X obj 388 502 readsf~ 2 44100;
#X obj 466 521 bng 15 250 50 0 empty empty empty 17 7 0 10 #fcfcfc
#000000 #000000;
#X msg 472 480 1;
#X obj 388 459 t b b;
#X obj 385 652 dac~;
#X obj 384 608 readsf~ 2 44100;
#X obj 467 629 bng 15 250 50 0 empty empty empty 17 7 0 10 #fcfcfc
#000000 #000000;
#X msg 466 587 1;
#X obj 385 565 t b b;
#X obj 785 222 dac~;
#X obj 788 177 readsf~ 2 44100;
#X obj 870 197 bng 15 250 50 0 empty empty empty 17 7 0 10 #fcfcfc
#000000 #000000;
#X msg 868 156 1;
#X obj 790 135 t b b;
#X obj 786 328 dac~;
#X obj 786 287 readsf~ 2 44100;
#X obj 869 308 bng 15 250 50 0 empty empty empty 17 7 0 10 #fcfcfc
#000000 #000000;
#X msg 873 266 1;
#X obj 787 243 t b b;
#X obj 785 436 dac~;
#X obj 784 393 readsf~ 2 44100;
#X obj 864 413 bng 15 250 50 0 empty empty empty 17 7 0 10 #fcfcfc
#000000 #000000;
#X msg 863 371 1;
#X obj 786 349 t b b;
#X obj 783 535 dac~;
#X obj 781 496 readsf~ 2 44100;
#X obj 857 519 bng 15 250 50 0 empty empty empty 17 7 0 10 #fcfcfc
#000000 #000000;
#X msg 858 475 1;
#X obj 784 455 t b b;
#X obj 783 640 dac~;
#X obj 783 596 readsf~ 2 44100;
#X obj 860 615 bng 15 250 50 0 empty empty empty 17 7 0 10 #fcfcfc
#000000 #000000;
#X msg 859 575 1;
#X obj 783 555 t b b;
#X obj 523 322 inlet;
#X obj 485 214 s fin;
#X obj 475 329 s fin;
#X obj 476 443 s fin;
#X obj 470 552 s fin;
#X obj 464 661 s fin;
#X obj 871 227 s fin;
#X obj 870 339 s fin;
#X obj 866 441 s fin;
#X obj 861 541 s fin;
#X obj 861 638 s fin;
#X msg 395 145 open ÉS.wav;
#X msg 389 262 open ET.wav;
#X msg 389 374 open ÉT.wav;
#X msg 388 480 open ÉV.wav;
#X msg 385 586 open EX.wav;
#X msg 788 156 open FI.wav;
#X msg 786 265 open FIX.wav;
#X msg 785 371 open FLUI.wav;
#X msg 782 475 open FON.wav;
#X msg 783 574 open GA.wav;
#X obj 523 352 route ÉS ET ÉT ÉV EX FI FIX FLUI FON GA;
#X obj 400 113 t b b;
#X connect 1 0 0 0;
#X connect 1 1 0 1;
#X connect 1 2 2 0;
#X connect 2 0 50 0;
#X connect 3 0 1 0;
#X connect 5 0 51 0;
#X connect 6 0 8 0;
#X connect 7 0 6 0;
#X connect 7 1 61 0;
#X connect 8 0 4 0;
#X connect 8 1 4 1;
#X connect 8 2 5 0;
#X connect 10 0 9 0;
#X connect 10 1 9 1;
#X connect 10 2 11 0;
#X connect 11 0 52 0;
#X connect 12 0 10 0;
#X connect 13 0 12 0;
#X connect 13 1 62 0;
#X connect 15 0 14 0;
#X connect 15 1 14 1;
#X connect 15 2 16 0;
#X connect 16 0 53 0;
#X connect 17 0 15 0;
#X connect 18 0 17 0;
#X connect 18 1 63 0;
#X connect 20 0 19 0;
#X connect 20 1 19 1;
#X connect 20 2 21 0;
#X connect 21 0 54 0;
#X connect 22 0 20 0;
#X connect 23 0 22 0;
#X connect 23 1 64 0;
#X connect 25 0 24 0;
#X connect 25 1 24 1;
#X connect 25 2 26 0;
#X connect 26 0 55 0;
#X connect 27 0 25 0;
#X connect 28 0 27 0;
#X connect 28 1 65 0;
#X connect 30 0 29 0;
#X connect 30 1 29 1;
#X connect 30 2 31 0;
#X connect 31 0 56 0;
#X connect 32 0 30 0;
#X connect 33 0 32 0;
#X connect 33 1 66 0;
#X connect 35 0 34 0;
#X connect 35 1 34 1;
#X connect 35 2 36 0;
#X connect 36 0 57 0;
#X connect 37 0 35 0;
#X connect 38 0 37 0;
#X connect 38 1 67 0;
#X connect 40 0 39 0;
#X connect 40 1 39 1;
#X connect 40 2 41 0;
#X connect 41 0 58 0;
#X connect 42 0 40 0;
#X connect 43 0 42 0;
#X connect 43 1 68 0;
#X connect 45 0 44 0;
#X connect 45 1 44 1;
#X connect 45 2 46 0;
#X connect 46 0 59 0;
#X connect 47 0 45 0;
#X connect 48 0 47 0;
#X connect 48 1 69 0;
#X connect 49 0 70 0;
#X connect 60 0 1 0;
#X connect 61 0 8 0;
#X connect 62 0 10 0;
#X connect 63 0 15 0;
#X connect 64 0 20 0;
#X connect 65 0 25 0;
#X connect 66 0 30 0;
#X connect 67 0 35 0;
#X connect 68 0 40 0;
#X connect 69 0 45 0;
#X connect 70 0 71 0;
#X connect 70 1 7 0;
#X connect 70 2 13 0;
#X connect 70 3 18 0;
#X connect 70 4 23 0;
#X connect 70 5 28 0;
#X connect 70 6 33 0;
#X connect 70 7 38 0;
#X connect 70 8 43 0;
#X connect 70 9 48 0;
#X connect 71 0 3 0;
#X connect 71 1 60 0;
#X restore 373 120 pd ÉS...GA;
#N canvas 0 0 1440 872 GE...IM 0;
#X obj 395 218 dac~;
#X obj 396 170 readsf~ 2 44100;
#X obj 483 192 bng 15 250 50 0 empty empty empty 17 7 0 10 #fcfcfc
#000000 #000000;
#X msg 468 145 1;
#X obj 389 330 dac~;
#X obj 470 308 bng 15 250 50 0 empty empty empty 17 7 0 10 #fcfcfc
#000000 #000000;
#X msg 467 264 1;
#X obj 392 241 t b b;
#X obj 392 285 readsf~ 2 44100;
#X obj 389 437 dac~;
#X obj 390 395 readsf~ 2 44100;
#X obj 469 417 bng 15 250 50 0 empty empty empty 17 7 0 10 #fcfcfc
#000000 #000000;
#X msg 484 374 1;
#X obj 390 351 t b b;
#X obj 386 544 dac~;
#X obj 387 501 readsf~ 2 44100;
#X obj 466 521 bng 15 250 50 0 empty empty empty 17 7 0 10 #fcfcfc
#000000 #000000;
#X msg 472 480 1;
#X obj 388 459 t b b;
#X obj 385 652 dac~;
#X obj 384 608 readsf~ 2 44100;
#X obj 467 629 bng 15 250 50 0 empty empty empty 17 7 0 10 #fcfcfc
#000000 #000000;
#X msg 466 587 1;
#X obj 385 565 t b b;
#X obj 785 222 dac~;
#X obj 788 177 readsf~ 2 44100;
#X obj 870 197 bng 15 250 50 0 empty empty empty 17 7 0 10 #fcfcfc
#000000 #000000;
#X msg 868 156 1;
#X obj 790 135 t b b;
#X obj 786 328 dac~;
#X obj 786 287 readsf~ 2 44100;
#X obj 869 308 bng 15 250 50 0 empty empty empty 17 7 0 10 #fcfcfc
#000000 #000000;
#X msg 873 266 1;
#X obj 787 243 t b b;
#X obj 785 436 dac~;
#X obj 784 393 readsf~ 2 44100;
#X obj 864 413 bng 15 250 50 0 empty empty empty 17 7 0 10 #fcfcfc
#000000 #000000;
#X msg 863 371 1;
#X obj 786 349 t b b;
#X obj 783 535 dac~;
#X obj 781 496 readsf~ 2 44100;
#X obj 857 519 bng 15 250 50 0 empty empty empty 17 7 0 10 #fcfcfc
#000000 #000000;
#X msg 858 475 1;
#X obj 784 455 t b b;
#X obj 783 640 dac~;
#X obj 783 596 readsf~ 2 44100;
#X obj 860 615 bng 15 250 50 0 empty empty empty 17 7 0 10 #fcfcfc
#000000 #000000;
#X msg 859 575 1;
#X obj 783 555 t b b;
#X obj 523 322 inlet;
#X obj 485 214 s fin;
#X obj 475 329 s fin;
#X obj 476 443 s fin;
#X obj 470 552 s fin;
#X obj 464 661 s fin;
#X obj 871 227 s fin;
#X obj 870 339 s fin;
#X obj 866 441 s fin;
#X obj 861 541 s fin;
#X obj 861 638 s fin;
#X msg 395 145 open GE.wav;
#X msg 389 262 open GEAIT.wav;
#X msg 389 374 open GEN.wav;
#X msg 388 480 open GI.wav;
#X msg 385 586 open GRAN.wav;
#X msg 788 156 open HIS.wav;
#X msg 786 265 open ID.wav;
#X msg 785 371 open IÈRE.wav;
#X msg 782 475 open IL.wav;
#X msg 783 574 open IM.wav;
#X obj 507 349 route GE GEAIT GEN GI GRAN HIS ID IÈRE IL IM;
#X obj 396 116 t b b;
#X connect 1 0 0 0;
#X connect 1 1 0 1;
#X connect 1 2 2 0;
#X connect 2 0 50 0;
#X connect 3 0 1 0;
#X connect 5 0 51 0;
#X connect 6 0 8 0;
#X connect 7 0 6 0;
#X connect 7 1 61 0;
#X connect 8 0 4 0;
#X connect 8 1 4 1;
#X connect 8 2 5 0;
#X connect 10 0 9 0;
#X connect 10 1 9 1;
#X connect 10 2 11 0;
#X connect 11 0 52 0;
#X connect 12 0 10 0;
#X connect 13 0 12 0;
#X connect 13 1 62 0;
#X connect 15 0 14 0;
#X connect 15 1 14 1;
#X connect 15 2 16 0;
#X connect 16 0 53 0;
#X connect 17 0 15 0;
#X connect 18 0 17 0;
#X connect 18 1 63 0;
#X connect 20 0 19 0;
#X connect 20 1 19 1;
#X connect 20 2 21 0;
#X connect 21 0 54 0;
#X connect 22 0 20 0;
#X connect 23 0 22 0;
#X connect 23 1 64 0;
#X connect 25 0 24 0;
#X connect 25 1 24 1;
#X connect 25 2 26 0;
#X connect 26 0 55 0;
#X connect 27 0 25 0;
#X connect 28 0 27 0;
#X connect 28 1 65 0;
#X connect 30 0 29 0;
#X connect 30 1 29 1;
#X connect 30 2 31 0;
#X connect 31 0 56 0;
#X connect 32 0 30 0;
#X connect 33 0 32 0;
#X connect 33 1 66 0;
#X connect 35 0 34 0;
#X connect 35 1 34 1;
#X connect 35 2 36 0;
#X connect 36 0 57 0;
#X connect 37 0 35 0;
#X connect 38 0 37 0;
#X connect 38 1 67 0;
#X connect 40 0 39 0;
#X connect 40 1 39 1;
#X connect 40 2 41 0;
#X connect 41 0 58 0;
#X connect 42 0 40 0;
#X connect 43 0 42 0;
#X connect 43 1 68 0;
#X connect 45 0 44 0;
#X connect 45 1 44 1;
#X connect 45 2 46 0;
#X connect 46 0 59 0;
#X connect 47 0 45 0;
#X connect 48 0 47 0;
#X connect 48 1 69 0;
#X connect 49 0 70 0;
#X connect 60 0 1 0;
#X connect 61 0 8 0;
#X connect 62 0 10 0;
#X connect 63 0 15 0;
#X connect 64 0 20 0;
#X connect 65 0 25 0;
#X connect 66 0 30 0;
#X connect 67 0 35 0;
#X connect 68 0 40 0;
#X connect 69 0 45 0;
#X connect 70 0 71 0;
#X connect 70 1 7 0;
#X connect 70 2 13 0;
#X connect 70 3 18 0;
#X connect 70 4 23 0;
#X connect 70 5 28 0;
#X connect 70 6 33 0;
#X connect 70 7 38 0;
#X connect 70 8 43 0;
#X connect 70 9 48 0;
#X connect 71 0 3 0;
#X connect 71 1 60 0;
#X restore 449 120 pd GE...IM;
#N canvas 0 0 1440 872 OR...PLE 0;
#X obj 474 389 dac~;
#X obj 463 331 readsf~ 2 44100;
#X obj 550 354 bng 15 250 50 0 empty empty empty 17 7 0 10 #fcfcfc
#000000 #000000;
#X msg 508 301 1;
#X obj 498 267 t b b;
#X obj 574 387 dac~;
#X obj 563 329 readsf~ 2 44100;
#X obj 650 352 bng 15 250 50 0 empty empty empty 17 7 0 10 #fcfcfc
#000000 #000000;
#X msg 608 299 1;
#X obj 598 265 t b b;
#X obj 675 385 dac~;
#X obj 664 327 readsf~ 2 44100;
#X obj 751 350 bng 15 250 50 0 empty empty empty 17 7 0 10 #fcfcfc
#000000 #000000;
#X msg 709 297 1;
#X obj 699 263 t b b;
#X obj 777 384 dac~;
#X obj 766 326 readsf~ 2 44100;
#X obj 853 349 bng 15 250 50 0 empty empty empty 17 7 0 10 #fcfcfc
#000000 #000000;
#X msg 811 296 1;
#X obj 801 262 t b b;
#X obj 879 383 dac~;
#X obj 868 325 readsf~ 2 44100;
#X obj 955 346 bng 15 250 50 0 empty empty empty 17 7 0 10 #fcfcfc
#000000 #000000;
#X msg 943 295 1, f 4;
#X obj 903 261 t b b;
#X obj 495 510 dac~;
#X obj 484 452 readsf~ 2 44100;
#X obj 571 475 bng 15 250 50 0 empty empty empty 17 7 0 10 #fcfcfc
#000000 #000000;
#X msg 537 420 1;
#X obj 519 388 t b b;
#X obj 595 508 dac~;
#X obj 584 450 readsf~ 2 44100;
#X obj 671 473 bng 15 250 50 0 empty empty empty 17 7 0 10 #fcfcfc
#000000 #000000;
#X msg 639 421 1;
#X obj 619 386 t b b;
#X obj 696 506 dac~;
#X obj 685 448 readsf~ 2 44100;
#X obj 772 471 bng 15 250 50 0 empty empty empty 17 7 0 10 #fcfcfc
#000000 #000000;
#X msg 741 418 1;
#X obj 720 384 t b b;
#X obj 798 505 dac~;
#X obj 787 447 readsf~ 2 44100;
#X obj 874 470 bng 15 250 50 0 empty empty empty 17 7 0 10 #fcfcfc
#000000 #000000;
#X msg 844 415 1;
#X obj 822 383 t b b;
#X obj 900 504 dac~;
#X obj 889 446 readsf~ 2 44100;
#X obj 976 469 bng 15 250 50 0 empty empty empty 17 7 0 10 #fcfcfc
#000000 #000000;
#X msg 960 417 1;
#X obj 924 382 t b b;
#X msg 440 301 open OR.wav;
#X msg 540 299 open OU.wav;
#X msg 641 297 open OUX.wav;
#X msg 743 296 open PA.wav;
#X msg 845 295 open PACT.wav;
#X msg 461 422 open PAR.wav;
#X msg 561 420 open PER.wav;
#X msg 662 418 open PEU.wav;
#X msg 764 417 open PLA.wav;
#X msg 866 416 open PLE.wav;
#X obj 547 204 inlet;
#X obj 507 358 s fin;
#X obj 608 360 s fin;
#X obj 706 358 s fin;
#X obj 809 359 s fin;
#X obj 912 358 s fin;
#X obj 531 484 s fin;
#X obj 627 484 s fin;
#X obj 730 490 s fin;
#X obj 832 483 s fin;
#X obj 934 481 s fin;
#X obj 547 232 route OR OU OUX PA PACT PAR PER PEU PLA PLE;
#X connect 1 0 0 0;
#X connect 1 1 0 1;
#X connect 1 2 2 0;
#X connect 2 0 61 0;
#X connect 3 0 1 0;
#X connect 4 0 3 0;
#X connect 4 1 50 0;
#X connect 6 0 5 0;
#X connect 6 1 5 1;
#X connect 6 2 7 0;
#X connect 7 0 62 0;
#X connect 8 0 6 0;
#X connect 9 0 8 0;
#X connect 9 1 51 0;
#X connect 11 0 10 0;
#X connect 11 1 10 1;
#X connect 11 2 12 0;
#X connect 12 0 63 0;
#X connect 13 0 11 0;
#X connect 14 0 13 0;
#X connect 14 1 52 0;
#X connect 16 0 15 0;
#X connect 16 1 15 1;
#X connect 16 2 17 0;
#X connect 17 0 64 0;
#X connect 18 0 16 0;
#X connect 19 0 18 0;
#X connect 19 1 53 0;
#X connect 21 0 20 0;
#X connect 21 1 20 1;
#X connect 21 2 22 0;
#X connect 22 0 65 0;
#X connect 23 0 21 0;
#X connect 24 0 23 0;
#X connect 24 1 54 0;
#X connect 26 0 25 0;
#X connect 26 1 25 1;
#X connect 26 2 27 0;
#X connect 27 0 66 0;
#X connect 28 0 26 0;
#X connect 29 0 28 0;
#X connect 29 1 55 0;
#X connect 31 0 30 0;
#X connect 31 1 30 1;
#X connect 31 2 32 0;
#X connect 32 0 67 0;
#X connect 33 0 31 0;
#X connect 34 0 33 0;
#X connect 34 1 56 0;
#X connect 36 0 35 0;
#X connect 36 1 35 1;
#X connect 36 2 37 0;
#X connect 37 0 68 0;
#X connect 38 0 36 0;
#X connect 39 0 38 0;
#X connect 39 1 57 0;
#X connect 41 0 40 0;
#X connect 41 1 40 1;
#X connect 41 2 42 0;
#X connect 42 0 69 0;
#X connect 43 0 41 0;
#X connect 44 0 43 0;
#X connect 44 1 58 0;
#X connect 46 0 45 0;
#X connect 46 1 45 1;
#X connect 46 2 47 0;
#X connect 47 0 70 0;
#X connect 48 0 46 0;
#X connect 49 0 48 0;
#X connect 49 1 59 0;
#X connect 50 0 1 0;
#X connect 51 0 6 0;
#X connect 52 0 11 0;
#X connect 53 0 16 0;
#X connect 54 0 21 0;
#X connect 55 0 26 0;
#X connect 56 0 31 0;
#X connect 57 0 36 0;
#X connect 58 0 41 0;
#X connect 59 0 46 0;
#X connect 60 0 71 0;
#X connect 71 0 4 0;
#X connect 71 1 9 0;
#X connect 71 2 14 0;
#X connect 71 3 19 0;
#X connect 71 4 24 0;
#X connect 71 5 29 0;
#X connect 71 6 34 0;
#X connect 71 7 39 0;
#X connect 71 8 44 0;
#X connect 71 9 49 0;
#X restore 136 181 pd OR...PLE;
#N canvas 0 0 1440 872 RE 0;
#X obj 494 419 dac~;
#X obj 483 361 readsf~ 2 44100;
#X obj 570 384 bng 15 250 50 0 empty empty empty 17 7 0 10 #fcfcfc
#000000 #000000;
#X msg 535 329 1;
#X obj 518 297 t b b;
#X obj 594 417 dac~;
#X obj 583 359 readsf~ 2 44100;
#X obj 670 382 bng 15 250 50 0 empty empty empty 17 7 0 10 #fcfcfc
#000000 #000000;
#X msg 628 329 1;
#X obj 618 295 t b b;
#X obj 695 415 dac~;
#X obj 684 357 readsf~ 2 44100;
#X obj 771 380 bng 15 250 50 0 empty empty empty 17 7 0 10 #fcfcfc
#000000 #000000;
#X msg 729 327 1;
#X obj 719 293 t b b;
#X obj 797 414 dac~;
#X obj 786 356 readsf~ 2 44100;
#X obj 873 379 bng 15 250 50 0 empty empty empty 17 7 0 10 #fcfcfc
#000000 #000000;
#X msg 831 326 1;
#X obj 821 292 t b b;
#X obj 899 413 dac~;
#X obj 888 355 readsf~ 2 44100;
#X obj 975 378 bng 15 250 50 0 empty empty empty 17 7 0 10 #fcfcfc
#000000 #000000;
#X msg 963 325 1, f 4;
#X obj 923 291 t b b;
#X obj 515 540 dac~;
#X obj 504 482 readsf~ 2 44100;
#X obj 591 505 bng 15 250 50 0 empty empty empty 17 7 0 10 #fcfcfc
#000000 #000000;
#X msg 557 450 1;
#X obj 539 418 t b b;
#X obj 615 538 dac~;
#X obj 604 480 readsf~ 2 44100;
#X obj 691 503 bng 15 250 50 0 empty empty empty 17 7 0 10 #fcfcfc
#000000 #000000;
#X msg 659 451 1;
#X obj 639 416 t b b;
#X obj 716 536 dac~;
#X obj 705 478 readsf~ 2 44100;
#X obj 792 501 bng 15 250 50 0 empty empty empty 17 7 0 10 #fcfcfc
#000000 #000000;
#X msg 761 448 1;
#X obj 740 414 t b b;
#X obj 818 535 dac~;
#X obj 807 477 readsf~ 2 44100;
#X obj 894 500 bng 15 250 50 0 empty empty empty 17 7 0 10 #fcfcfc
#000000 #000000;
#X msg 864 445 1;
#X obj 842 413 t b b;
#X obj 920 534 dac~;
#X obj 909 476 readsf~ 2 44100;
#X obj 996 499 bng 15 250 50 0 empty empty empty 17 7 0 10 #fcfcfc
#000000 #000000;
#X msg 980 447 1;
#X obj 944 412 t b b;
#X msg 460 331 open RE.wav;
#X msg 560 329 open REL.wav;
#X msg 661 327 open RES.wav;
#X msg 763 326 open RU.wav;
#X msg 865 325 open RY.wav;
#X msg 481 452 open S.wav;
#X msg 581 450 open SA.wav;
#X msg 682 448 open SAN.wav;
#X msg 784 447 open SÉ.wav;
#X msg 886 446 open SES.wav;
#X obj 629 238 inlet;
#X obj 524 390 s fin;
#X obj 629 386 s fin;
#X obj 730 388 s fin;
#X obj 831 388 s fin;
#X obj 934 385 s fin;
#X obj 553 518 s fin;
#X obj 648 516 s fin;
#X obj 749 514 s fin;
#X obj 851 518 s fin;
#X obj 954 513 s fin;
#X obj 629 264 route RE REL RES RU RY S SA SAN SÉ SES;
#X connect 1 0 0 0;
#X connect 1 1 0 1;
#X connect 1 2 2 0;
#X connect 2 0 61 0;
#X connect 3 0 1 0;
#X connect 4 0 3 0;
#X connect 4 1 50 0;
#X connect 6 0 5 0;
#X connect 6 1 5 1;
#X connect 6 2 7 0;
#X connect 7 0 62 0;
#X connect 8 0 6 0;
#X connect 9 0 8 0;
#X connect 9 1 51 0;
#X connect 11 0 10 0;
#X connect 11 1 10 1;
#X connect 11 2 12 0;
#X connect 12 0 63 0;
#X connect 13 0 11 0;
#X connect 14 0 13 0;
#X connect 14 1 52 0;
#X connect 16 0 15 0;
#X connect 16 1 15 1;
#X connect 16 2 17 0;
#X connect 17 0 64 0;
#X connect 18 0 16 0;
#X connect 19 0 18 0;
#X connect 19 1 53 0;
#X connect 21 0 20 0;
#X connect 21 1 20 1;
#X connect 21 2 22 0;
#X connect 22 0 65 0;
#X connect 23 0 21 0;
#X connect 24 0 23 0;
#X connect 24 1 54 0;
#X connect 26 0 25 0;
#X connect 26 1 25 1;
#X connect 26 2 27 0;
#X connect 27 0 66 0;
#X connect 28 0 26 0;
#X connect 29 0 28 0;
#X connect 29 1 55 0;
#X connect 31 0 30 0;
#X connect 31 1 30 1;
#X connect 31 2 32 0;
#X connect 32 0 67 0;
#X connect 33 0 31 0;
#X connect 34 0 33 0;
#X connect 34 1 56 0;
#X connect 36 0 35 0;
#X connect 36 1 35 1;
#X connect 36 2 37 0;
#X connect 37 0 68 0;
#X connect 38 0 36 0;
#X connect 39 0 38 0;
#X connect 39 1 57 0;
#X connect 41 0 40 0;
#X connect 41 1 40 1;
#X connect 41 2 42 0;
#X connect 42 0 69 0;
#X connect 43 0 41 0;
#X connect 44 0 43 0;
#X connect 44 1 58 0;
#X connect 46 0 45 0;
#X connect 46 1 45 1;
#X connect 46 2 47 0;
#X connect 47 0 70 0;
#X connect 48 0 46 0;
#X connect 49 0 48 0;
#X connect 49 1 59 0;
#X connect 50 0 1 0;
#X connect 51 0 6 0;
#X connect 52 0 11 0;
#X connect 53 0 16 0;
#X connect 54 0 21 0;
#X connect 55 0 26 0;
#X connect 56 0 31 0;
#X connect 57 0 36 0;
#X connect 58 0 41 0;
#X connect 59 0 46 0;
#X connect 60 0 71 0;
#X connect 71 0 4 0;
#X connect 71 1 9 0;
#X connect 71 2 14 0;
#X connect 71 3 19 0;
#X connect 71 4 24 0;
#X connect 71 5 29 0;
#X connect 71 6 34 0;
#X connect 71 7 39 0;
#X connect 71 8 44 0;
#X connect 71 9 49 0;
#X restore 293 178 pd RE SES;
#N canvas 0 0 1440 872 PLI...RA 0;
#X obj 565 237 inlet;
#X obj 495 433 dac~;
#X obj 484 375 readsf~ 2 44100;
#X obj 571 398 bng 15 250 50 0 empty empty empty 17 7 0 10 #fcfcfc
#000000 #000000;
#X msg 529 345 1;
#X obj 519 311 t b b;
#X obj 595 431 dac~;
#X obj 584 373 readsf~ 2 44100;
#X obj 671 396 bng 15 250 50 0 empty empty empty 17 7 0 10 #fcfcfc
#000000 #000000;
#X msg 629 343 1;
#X obj 619 309 t b b;
#X obj 696 429 dac~;
#X obj 685 371 readsf~ 2 44100;
#X obj 772 394 bng 15 250 50 0 empty empty empty 17 7 0 10 #fcfcfc
#000000 #000000;
#X msg 730 341 1;
#X obj 720 307 t b b;
#X obj 900 427 dac~;
#X obj 889 369 readsf~ 2 44100;
#X obj 976 392 bng 15 250 50 0 empty empty empty 17 7 0 10 #fcfcfc
#000000 #000000;
#X msg 964 339 1, f 4;
#X obj 924 305 t b b;
#X obj 516 554 dac~;
#X obj 505 496 readsf~ 2 44100;
#X obj 592 519 bng 15 250 50 0 empty empty empty 17 7 0 10 #fcfcfc
#000000 #000000;
#X msg 558 464 1;
#X obj 540 432 t b b;
#X obj 616 552 dac~;
#X obj 605 494 readsf~ 2 44100;
#X obj 692 517 bng 15 250 50 0 empty empty empty 17 7 0 10 #fcfcfc
#000000 #000000;
#X msg 660 465 1;
#X obj 640 430 t b b;
#X obj 717 550 dac~;
#X obj 706 492 readsf~ 2 44100;
#X obj 793 515 bng 15 250 50 0 empty empty empty 17 7 0 10 #fcfcfc
#000000 #000000;
#X msg 762 462 1;
#X obj 741 428 t b b;
#X obj 819 549 dac~;
#X obj 808 491 readsf~ 2 44100;
#X obj 895 514 bng 15 250 50 0 empty empty empty 17 7 0 10 #fcfcfc
#000000 #000000;
#X msg 865 459 1;
#X obj 843 427 t b b;
#X obj 921 548 dac~;
#X obj 910 490 readsf~ 2 44100;
#X obj 997 513 bng 15 250 50 0 empty empty empty 17 7 0 10 #fcfcfc
#000000 #000000;
#X msg 981 461 1;
#X obj 945 426 t b b;
#X msg 461 345 open PLI.wav;
#X msg 561 343 open PLU.wav;
#X msg 662 341 open PO.wav;
#X msg 866 339 open PRI.wav;
#X msg 482 466 open PUL.wav;
#X msg 582 464 open QU'.wav;
#X msg 683 462 open QUE.wav;
#X msg 785 461 open QUI.wav;
#X msg 887 460 open RA.wav;
#X obj 533 409 s fin;
#X obj 633 406 s fin;
#X obj 730 407 s fin;
#X obj 931 401 s fin;
#X obj 551 530 s fin;
#X obj 651 533 s fin;
#X obj 749 531 s fin;
#X obj 851 529 s fin;
#X obj 955 527 s fin;
#X obj 566 266 route PLI PLU PO PRÉ PRI PUL QU' QUE QUI RA;
#X obj 936 259 dac~;
#X obj 939 233 readsf~ 2 44100;
#X obj 1056 258 bng 15 250 50 0 empty empty empty 17 7 0 10 #fcfcfc
#000000 #000000;
#X msg 1044 205 1, f 4;
#X obj 958 172 t b b;
#X obj 1011 267 s fin;
#X msg 946 205 open pré.wav;
#X connect 0 0 64 0;
#X connect 2 0 1 0;
#X connect 2 1 1 1;
#X connect 2 2 3 0;
#X connect 3 0 55 0;
#X connect 4 0 2 0;
#X connect 5 0 4 0;
#X connect 5 1 46 0;
#X connect 7 0 6 0;
#X connect 7 1 6 1;
#X connect 7 2 8 0;
#X connect 8 0 56 0;
#X connect 9 0 7 0;
#X connect 10 0 9 0;
#X connect 10 1 47 0;
#X connect 12 0 11 0;
#X connect 12 1 11 1;
#X connect 12 2 13 0;
#X connect 13 0 57 0;
#X connect 14 0 12 0;
#X connect 15 0 14 0;
#X connect 15 1 48 0;
#X connect 17 0 16 0;
#X connect 17 1 16 1;
#X connect 17 2 18 0;
#X connect 18 0 58 0;
#X connect 19 0 17 0;
#X connect 20 0 19 0;
#X connect 20 1 49 0;
#X connect 22 0 21 0;
#X connect 22 1 21 1;
#X connect 22 2 23 0;
#X connect 23 0 59 0;
#X connect 24 0 22 0;
#X connect 25 0 24 0;
#X connect 25 1 50 0;
#X connect 27 0 26 0;
#X connect 27 1 26 1;
#X connect 27 2 28 0;
#X connect 28 0 60 0;
#X connect 29 0 27 0;
#X connect 30 0 29 0;
#X connect 30 1 51 0;
#X connect 32 0 31 0;
#X connect 32 1 31 1;
#X connect 32 2 33 0;
#X connect 33 0 61 0;
#X connect 34 0 32 0;
#X connect 35 0 34 0;
#X connect 35 1 52 0;
#X connect 37 0 36 0;
#X connect 37 1 36 1;
#X connect 37 2 38 0;
#X connect 38 0 62 0;
#X connect 39 0 37 0;
#X connect 40 0 39 0;
#X connect 40 1 53 0;
#X connect 42 0 41 0;
#X connect 42 1 41 1;
#X connect 42 2 43 0;
#X connect 43 0 63 0;
#X connect 44 0 42 0;
#X connect 45 0 44 0;
#X connect 45 1 54 0;
#X connect 46 0 2 0;
#X connect 47 0 7 0;
#X connect 48 0 12 0;
#X connect 49 0 17 0;
#X connect 50 0 22 0;
#X connect 51 0 27 0;
#X connect 52 0 32 0;
#X connect 53 0 37 0;
#X connect 54 0 42 0;
#X connect 64 0 5 0;
#X connect 64 1 10 0;
#X connect 64 2 15 0;
#X connect 64 3 69 0;
#X connect 64 4 20 0;
#X connect 64 5 25 0;
#X connect 64 6 30 0;
#X connect 64 7 35 0;
#X connect 64 8 40 0;
#X connect 64 9 45 0;
#X connect 66 0 65 0;
#X connect 66 1 65 1;
#X connect 66 2 67 0;
#X connect 67 0 70 0;
#X connect 68 0 66 0;
#X connect 69 0 68 0;
#X connect 69 1 71 0;
#X connect 71 0 66 0;
#X restore 215 179 pd PLI...RA;
#N canvas 0 0 1440 872 THME...TUR 0;
#X obj 579 175 inlet;
#X obj 505 358 dac~;
#X obj 494 300 readsf~ 2 44100;
#X obj 581 323 bng 15 250 50 0 empty empty empty 17 7 0 10 #fcfcfc
#000000 #000000;
#X msg 546 268 1;
#X obj 529 236 t b b;
#X obj 605 356 dac~;
#X obj 684 323 bng 15 250 50 0 empty empty empty 17 7 0 10 #fcfcfc
#000000 #000000;
#X msg 674 244 1;
#X obj 629 234 t b b;
#X obj 706 354 dac~;
#X obj 695 296 readsf~ 2 44100;
#X obj 782 319 bng 15 250 50 0 empty empty empty 17 7 0 10 #fcfcfc
#000000 #000000;
#X msg 740 266 1;
#X obj 730 232 t b b;
#X obj 808 353 dac~;
#X obj 797 295 readsf~ 2 44100;
#X obj 884 318 bng 15 250 50 0 empty empty empty 17 7 0 10 #fcfcfc
#000000 #000000;
#X msg 842 265 1;
#X obj 832 231 t b b;
#X obj 910 352 dac~;
#X obj 899 294 readsf~ 2 44100;
#X obj 986 317 bng 15 250 50 0 empty empty empty 17 7 0 10 #fcfcfc
#000000 #000000;
#X msg 974 264 1, f 4;
#X obj 934 230 t b b;
#X obj 526 479 dac~;
#X obj 515 421 readsf~ 2 44100;
#X obj 602 444 bng 15 250 50 0 empty empty empty 17 7 0 10 #fcfcfc
#000000 #000000;
#X msg 568 389 1;
#X obj 550 357 t b b;
#X obj 626 477 dac~;
#X obj 615 419 readsf~ 2 44100;
#X obj 702 442 bng 15 250 50 0 empty empty empty 17 7 0 10 #fcfcfc
#000000 #000000;
#X msg 670 390 1;
#X obj 650 355 t b b;
#X obj 727 475 dac~;
#X obj 716 417 readsf~ 2 44100;
#X obj 803 440 bng 15 250 50 0 empty empty empty 17 7 0 10 #fcfcfc
#000000 #000000;
#X msg 772 387 1;
#X obj 751 353 t b b;
#X obj 829 474 dac~;
#X obj 818 416 readsf~ 2 44100;
#X obj 905 439 bng 15 250 50 0 empty empty empty 17 7 0 10 #fcfcfc
#000000 #000000;
#X msg 875 384 1;
#X obj 853 352 t b b;
#X obj 931 473 dac~;
#X obj 920 415 readsf~ 2 44100;
#X obj 1007 438 bng 15 250 50 0 empty empty empty 17 7 0 10 #fcfcfc
#000000 #000000;
#X msg 991 386 1;
#X obj 955 351 t b b;
#X obj 535 329 s fin;
#X obj 640 325 s fin;
#X obj 741 327 s fin;
#X obj 842 327 s fin;
#X obj 945 324 s fin;
#X obj 564 457 s fin;
#X obj 659 455 s fin;
#X obj 760 453 s fin;
#X obj 862 457 s fin;
#X obj 965 452 s fin;
#X msg 471 270 open THME.wav;
#X msg 672 266 open TOI.wav;
#X msg 774 265 open TOT.wav;
#X msg 876 264 open TOUT.wav;
#X msg 492 391 open TRAN.wav;
#X msg 592 389 open TRE.wav;
#X msg 693 387 open TRÈS.wav;
#X msg 795 386 open TU.wav;
#X msg 897 385 open TUR.wav;
#X obj 618 167 route THME TI TOI TOT TOUT TRAN TRE TRÈS TU TUR;
#X msg 581 265 open TI.wav;
#X msg 721 68 TI;
#X obj 594 298 readsf~ 2 44100;
#X connect 0 0 69 0;
#X connect 2 0 1 0;
#X connect 2 1 1 1;
#X connect 2 2 3 0;
#X connect 3 0 50 0;
#X connect 4 0 2 0;
#X connect 5 0 4 0;
#X connect 5 1 60 0;
#X connect 7 0 51 0;
#X connect 8 0 72 0;
#X connect 9 0 8 0;
#X connect 9 1 70 0;
#X connect 11 0 10 0;
#X connect 11 1 10 1;
#X connect 11 2 12 0;
#X connect 12 0 52 0;
#X connect 13 0 11 0;
#X connect 14 0 13 0;
#X connect 14 1 61 0;
#X connect 16 0 15 0;
#X connect 16 1 15 1;
#X connect 16 2 17 0;
#X connect 17 0 53 0;
#X connect 18 0 16 0;
#X connect 19 0 18 0;
#X connect 19 1 62 0;
#X connect 21 0 20 0;
#X connect 21 1 20 1;
#X connect 21 2 22 0;
#X connect 22 0 54 0;
#X connect 23 0 21 0;
#X connect 24 0 23 0;
#X connect 24 1 63 0;
#X connect 26 0 25 0;
#X connect 26 1 25 1;
#X connect 26 2 27 0;
#X connect 27 0 55 0;
#X connect 28 0 26 0;
#X connect 29 0 28 0;
#X connect 29 1 64 0;
#X connect 31 0 30 0;
#X connect 31 1 30 1;
#X connect 31 2 32 0;
#X connect 32 0 56 0;
#X connect 33 0 31 0;
#X connect 34 0 33 0;
#X connect 34 1 65 0;
#X connect 36 0 35 0;
#X connect 36 1 35 1;
#X connect 36 2 37 0;
#X connect 37 0 57 0;
#X connect 38 0 36 0;
#X connect 39 0 38 0;
#X connect 39 1 66 0;
#X connect 41 0 40 0;
#X connect 41 1 40 1;
#X connect 41 2 42 0;
#X connect 42 0 58 0;
#X connect 43 0 41 0;
#X connect 44 0 43 0;
#X connect 44 1 67 0;
#X connect 46 0 45 0;
#X connect 46 1 45 1;
#X connect 46 2 47 0;
#X connect 47 0 59 0;
#X connect 48 0 46 0;
#X connect 49 0 48 0;
#X connect 49 1 68 0;
#X connect 60 0 2 0;
#X connect 61 0 11 0;
#X connect 62 0 16 0;
#X connect 63 0 21 0;
#X connect 64 0 26 0;
#X connect 65 0 31 0;
#X connect 66 0 36 0;
#X connect 67 0 41 0;
#X connect 68 0 46 0;
#X connect 69 0 5 0;
#X connect 69 1 9 0;
#X connect 69 2 14 0;
#X connect 69 3 19 0;
#X connect 69 4 24 0;
#X connect 69 5 29 0;
#X connect 69 6 34 0;
#X connect 69 7 39 0;
#X connect 69 8 44 0;
#X connect 69 9 49 0;
#X connect 70 0 72 0;
#X connect 71 0 69 0;
#X connect 72 0 6 0;
#X connect 72 1 6 1;
#X connect 72 2 7 0;
#X restore 445 177 pd THME...TUR;
#N canvas 0 0 1440 872 MAIT...ON 0;
#X obj 589 192 inlet;
#X obj 496 375 dac~;
#X obj 485 317 readsf~ 2 44100;
#X obj 572 340 bng 15 250 50 0 empty empty empty 17 7 0 10 #fcfcfc
#000000 #000000;
#X msg 537 285 1;
#X obj 520 253 t b b;
#X obj 596 373 dac~;
#X obj 585 315 readsf~ 2 44100;
#X obj 672 338 bng 15 250 50 0 empty empty empty 17 7 0 10 #fcfcfc
#000000 #000000;
#X msg 630 285 1;
#X obj 620 251 t b b;
#X obj 697 371 dac~;
#X obj 686 313 readsf~ 2 44100;
#X obj 773 336 bng 15 250 50 0 empty empty empty 17 7 0 10 #fcfcfc
#000000 #000000;
#X msg 731 283 1;
#X obj 721 249 t b b;
#X obj 799 370 dac~;
#X obj 788 312 readsf~ 2 44100;
#X obj 875 335 bng 15 250 50 0 empty empty empty 17 7 0 10 #fcfcfc
#000000 #000000;
#X msg 833 282 1;
#X obj 823 248 t b b;
#X obj 901 369 dac~;
#X obj 890 311 readsf~ 2 44100;
#X obj 977 334 bng 15 250 50 0 empty empty empty 17 7 0 10 #fcfcfc
#000000 #000000;
#X msg 965 281 1, f 4;
#X obj 925 247 t b b;
#X obj 517 496 dac~;
#X obj 506 438 readsf~ 2 44100;
#X obj 593 461 bng 15 250 50 0 empty empty empty 17 7 0 10 #fcfcfc
#000000 #000000;
#X msg 559 406 1;
#X obj 541 374 t b b;
#X obj 617 494 dac~;
#X obj 606 436 readsf~ 2 44100;
#X obj 693 459 bng 15 250 50 0 empty empty empty 17 7 0 10 #fcfcfc
#000000 #000000;
#X msg 661 407 1;
#X obj 641 372 t b b;
#X obj 718 492 dac~;
#X obj 707 434 readsf~ 2 44100;
#X obj 794 457 bng 15 250 50 0 empty empty empty 17 7 0 10 #fcfcfc
#000000 #000000;
#X msg 763 404 1;
#X obj 742 370 t b b;
#X obj 820 491 dac~;
#X obj 809 433 readsf~ 2 44100;
#X obj 896 456 bng 15 250 50 0 empty empty empty 17 7 0 10 #fcfcfc
#000000 #000000;
#X msg 866 401 1;
#X obj 844 369 t b b;
#X obj 922 490 dac~;
#X obj 911 432 readsf~ 2 44100;
#X obj 998 455 bng 15 250 50 0 empty empty empty 17 7 0 10 #fcfcfc
#000000 #000000;
#X msg 982 403 1;
#X obj 946 368 t b b;
#X obj 526 346 s fin;
#X obj 631 342 s fin;
#X obj 732 344 s fin;
#X obj 833 344 s fin;
#X obj 936 341 s fin;
#X obj 555 474 s fin;
#X obj 650 472 s fin;
#X obj 751 470 s fin;
#X obj 853 474 s fin;
#X obj 956 469 s fin;
#X msg 462 287 open MAIT.wav;
#X msg 562 285 open MAN.wav;
#X msg 663 283 open ME.wav;
#X msg 765 282 open MENT.wav;
#X msg 867 281 open MOU.wav;
#X msg 483 408 open N'.wav;
#X msg 583 406 open NA.wav;
#X msg 684 404 open NE.wav;
#X msg 786 403 open NI.wav;
#X msg 888 402 open ON.wav;
#X obj 585 220 route MAIT MAN ME MENT MOU N' NA NE NI ON;
#X connect 0 0 71 0;
#X connect 2 0 1 0;
#X connect 2 1 1 1;
#X connect 2 2 3 0;
#X connect 3 0 51 0;
#X connect 4 0 2 0;
#X connect 5 0 4 0;
#X connect 5 1 61 0;
#X connect 7 0 6 0;
#X connect 7 1 6 1;
#X connect 7 2 8 0;
#X connect 8 0 52 0;
#X connect 9 0 7 0;
#X connect 10 0 9 0;
#X connect 10 1 62 0;
#X connect 12 0 11 0;
#X connect 12 1 11 1;
#X connect 12 2 13 0;
#X connect 13 0 53 0;
#X connect 14 0 12 0;
#X connect 15 0 14 0;
#X connect 15 1 63 0;
#X connect 17 0 16 0;
#X connect 17 1 16 1;
#X connect 17 2 18 0;
#X connect 18 0 54 0;
#X connect 19 0 17 0;
#X connect 20 0 19 0;
#X connect 20 1 64 0;
#X connect 22 0 21 0;
#X connect 22 1 21 1;
#X connect 22 2 23 0;
#X connect 23 0 55 0;
#X connect 24 0 22 0;
#X connect 25 0 24 0;
#X connect 25 1 65 0;
#X connect 27 0 26 0;
#X connect 27 1 26 1;
#X connect 27 2 28 0;
#X connect 28 0 56 0;
#X connect 29 0 27 0;
#X connect 30 0 29 0;
#X connect 30 1 66 0;
#X connect 32 0 31 0;
#X connect 32 1 31 1;
#X connect 32 2 33 0;
#X connect 33 0 57 0;
#X connect 34 0 32 0;
#X connect 35 0 34 0;
#X connect 35 1 67 0;
#X connect 37 0 36 0;
#X connect 37 1 36 1;
#X connect 37 2 38 0;
#X connect 38 0 58 0;
#X connect 39 0 37 0;
#X connect 40 0 39 0;
#X connect 40 1 68 0;
#X connect 42 0 41 0;
#X connect 42 1 41 1;
#X connect 42 2 43 0;
#X connect 43 0 59 0;
#X connect 44 0 42 0;
#X connect 45 0 44 0;
#X connect 45 1 69 0;
#X connect 47 0 46 0;
#X connect 47 1 46 1;
#X connect 47 2 48 0;
#X connect 48 0 60 0;
#X connect 49 0 47 0;
#X connect 50 0 49 0;
#X connect 50 1 70 0;
#X connect 61 0 2 0;
#X connect 62 0 7 0;
#X connect 63 0 12 0;
#X connect 64 0 17 0;
#X connect 65 0 22 0;
#X connect 66 0 27 0;
#X connect 67 0 32 0;
#X connect 68 0 37 0;
#X connect 69 0 42 0;
#X connect 70 0 47 0;
#X connect 71 0 5 0;
#X connect 71 1 10 0;
#X connect 71 2 15 0;
#X connect 71 3 20 0;
#X connect 71 4 25 0;
#X connect 71 5 30 0;
#X connect 71 6 35 0;
#X connect 71 7 40 0;
#X connect 71 8 45 0;
#X connect 71 9 50 0;
#X restore 46 181 pd MAIT...ON;
#N canvas 0 0 1440 872 SIM...TES 0;
#X obj 506 207 inlet;
#X obj 413 390 dac~;
#X obj 402 332 readsf~ 2 44100;
#X obj 489 355 bng 15 250 50 0 empty empty empty 17 7 0 10 #fcfcfc
#000000 #000000;
#X msg 454 300 1;
#X obj 437 268 t b b;
#X obj 513 388 dac~;
#X obj 502 330 readsf~ 2 44100;
#X obj 589 353 bng 15 250 50 0 empty empty empty 17 7 0 10 #fcfcfc
#000000 #000000;
#X msg 547 300 1;
#X obj 537 266 t b b;
#X obj 614 386 dac~;
#X obj 603 328 readsf~ 2 44100;
#X obj 690 351 bng 15 250 50 0 empty empty empty 17 7 0 10 #fcfcfc
#000000 #000000;
#X msg 648 298 1;
#X obj 638 264 t b b;
#X obj 716 385 dac~;
#X obj 705 327 readsf~ 2 44100;
#X obj 792 350 bng 15 250 50 0 empty empty empty 17 7 0 10 #fcfcfc
#000000 #000000;
#X msg 750 297 1;
#X obj 740 263 t b b;
#X obj 818 384 dac~;
#X obj 807 326 readsf~ 2 44100;
#X obj 894 349 bng 15 250 50 0 empty empty empty 17 7 0 10 #fcfcfc
#000000 #000000;
#X msg 882 296 1, f 4;
#X obj 842 262 t b b;
#X obj 434 511 dac~;
#X obj 423 453 readsf~ 2 44100;
#X obj 510 476 bng 15 250 50 0 empty empty empty 17 7 0 10 #fcfcfc
#000000 #000000;
#X msg 476 421 1;
#X obj 458 389 t b b;
#X obj 534 509 dac~;
#X obj 523 451 readsf~ 2 44100;
#X obj 610 474 bng 15 250 50 0 empty empty empty 17 7 0 10 #fcfcfc
#000000 #000000;
#X msg 578 422 1;
#X obj 558 387 t b b;
#X obj 635 507 dac~;
#X obj 624 449 readsf~ 2 44100;
#X obj 711 472 bng 15 250 50 0 empty empty empty 17 7 0 10 #fcfcfc
#000000 #000000;
#X msg 680 419 1;
#X obj 659 385 t b b;
#X obj 737 506 dac~;
#X obj 726 448 readsf~ 2 44100;
#X obj 813 471 bng 15 250 50 0 empty empty empty 17 7 0 10 #fcfcfc
#000000 #000000;
#X msg 783 416 1;
#X obj 761 384 t b b;
#X obj 839 505 dac~;
#X obj 826 448 readsf~ 2 44100;
#X obj 915 470 bng 15 250 50 0 empty empty empty 17 7 0 10 #fcfcfc
#000000 #000000;
#X msg 899 418 1;
#X obj 863 383 t b b;
#X obj 443 361 s fin;
#X obj 548 357 s fin;
#X obj 649 359 s fin;
#X obj 750 359 s fin;
#X obj 853 356 s fin;
#X obj 472 489 s fin;
#X obj 567 487 s fin;
#X obj 668 485 s fin;
#X obj 770 489 s fin;
#X obj 872 487 s fin;
#X msg 379 302 open SIM.wav;
#X msg 479 300 open SION.wav;
#X msg 580 298 open SOL.wav;
#X msg 682 297 open SON.wav;
#X msg 784 296 open STE.wav;
#X msg 400 423 open SUR.wav;
#X msg 500 421 open TAIT.wav;
#X msg 601 419 open TAN.wav;
#X msg 703 418 open TE.wav;
#X msg 805 417 open TES.wav;
#X obj 533 229 route SIM SION SOL SON STE SUR TAIT TAN TE TES;
#X connect 0 0 71 0;
#X connect 2 0 1 0;
#X connect 2 1 1 1;
#X connect 2 2 3 0;
#X connect 3 0 51 0;
#X connect 4 0 2 0;
#X connect 5 0 4 0;
#X connect 5 1 61 0;
#X connect 7 0 6 0;
#X connect 7 1 6 1;
#X connect 7 2 8 0;
#X connect 8 0 52 0;
#X connect 9 0 7 0;
#X connect 10 0 9 0;
#X connect 10 1 62 0;
#X connect 12 0 11 0;
#X connect 12 1 11 1;
#X connect 12 2 13 0;
#X connect 13 0 53 0;
#X connect 14 0 12 0;
#X connect 15 0 14 0;
#X connect 15 1 63 0;
#X connect 17 0 16 0;
#X connect 17 1 16 1;
#X connect 17 2 18 0;
#X connect 18 0 54 0;
#X connect 19 0 17 0;
#X connect 20 0 19 0;
#X connect 20 1 64 0;
#X connect 22 0 21 0;
#X connect 22 1 21 1;
#X connect 22 2 23 0;
#X connect 23 0 55 0;
#X connect 24 0 22 0;
#X connect 25 0 24 0;
#X connect 25 1 65 0;
#X connect 27 0 26 0;
#X connect 27 1 26 1;
#X connect 27 2 28 0;
#X connect 28 0 56 0;
#X connect 29 0 27 0;
#X connect 30 0 29 0;
#X connect 30 1 66 0;
#X connect 32 0 31 0;
#X connect 32 1 31 1;
#X connect 32 2 33 0;
#X connect 33 0 57 0;
#X connect 34 0 32 0;
#X connect 35 0 34 0;
#X connect 35 1 67 0;
#X connect 37 0 36 0;
#X connect 37 1 36 1;
#X connect 37 2 38 0;
#X connect 38 0 58 0;
#X connect 39 0 37 0;
#X connect 40 0 39 0;
#X connect 40 1 68 0;
#X connect 42 0 41 0;
#X connect 42 1 41 1;
#X connect 42 2 43 0;
#X connect 43 0 59 0;
#X connect 44 0 42 0;
#X connect 45 0 44 0;
#X connect 45 1 69 0;
#X connect 47 0 46 0;
#X connect 47 1 46 1;
#X connect 47 2 48 0;
#X connect 48 0 60 0;
#X connect 49 0 47 0;
#X connect 50 0 49 0;
#X connect 50 1 70 0;
#X connect 61 0 2 0;
#X connect 62 0 7 0;
#X connect 63 0 12 0;
#X connect 64 0 17 0;
#X connect 65 0 22 0;
#X connect 66 0 27 0;
#X connect 67 0 32 0;
#X connect 68 0 37 0;
#X connect 69 0 42 0;
#X connect 70 0 47 0;
#X connect 71 0 5 0;
#X connect 71 1 10 0;
#X connect 71 2 15 0;
#X connect 71 3 20 0;
#X connect 71 4 25 0;
#X connect 71 5 30 0;
#X connect 71 6 35 0;
#X connect 71 7 40 0;
#X connect 71 8 45 0;
#X connect 71 9 50 0;
#X restore 361 178 pd SIM...TES;
#N canvas 0 0 1440 872 UN...YÉ 0;
#X obj 579 243 inlet;
#X obj 441 454 dac~;
#X obj 430 396 readsf~ 2 44100;
#X obj 517 419 bng 15 250 50 0 empty empty empty 17 7 0 10 #fcfcfc
#000000 #000000;
#X msg 482 364 1;
#X obj 465 332 t b b;
#X obj 541 452 dac~;
#X obj 530 394 readsf~ 2 44100;
#X obj 617 417 bng 15 250 50 0 empty empty empty 17 7 0 10 #fcfcfc
#000000 #000000;
#X msg 575 364 1;
#X obj 565 330 t b b;
#X obj 642 450 dac~;
#X obj 631 392 readsf~ 2 44100;
#X obj 718 415 bng 15 250 50 0 empty empty empty 17 7 0 10 #fcfcfc
#000000 #000000;
#X msg 676 362 1;
#X obj 666 328 t b b;
#X obj 744 449 dac~;
#X obj 733 391 readsf~ 2 44100;
#X obj 820 414 bng 15 250 50 0 empty empty empty 17 7 0 10 #fcfcfc
#000000 #000000;
#X msg 778 361 1;
#X obj 768 327 t b b;
#X obj 846 448 dac~;
#X obj 835 390 readsf~ 2 44100;
#X obj 922 413 bng 15 250 50 0 empty empty empty 17 7 0 10 #fcfcfc
#000000 #000000;
#X msg 910 360 1, f 4;
#X obj 870 326 t b b;
#X obj 471 425 s fin;
#X obj 576 421 s fin;
#X obj 677 423 s fin;
#X obj 778 423 s fin;
#X obj 881 420 s fin;
#X msg 407 366 open UN.wav;
#X msg 507 364 open VE.wav;
#X msg 608 362 open VER.wav;
#X msg 710 361 open VO.wav;
#X msg 812 360 open YÉ.wav;
#X obj 582 269 route UN VE VER VO YÉ;
#X msg 669 203 VER;
#X connect 0 0 36 0;
#X connect 2 0 1 0;
#X connect 2 1 1 1;
#X connect 2 2 3 0;
#X connect 3 0 26 0;
#X connect 4 0 2 0;
#X connect 5 0 4 0;
#X connect 5 1 31 0;
#X connect 7 0 6 0;
#X connect 7 1 6 1;
#X connect 7 2 8 0;
#X connect 8 0 27 0;
#X connect 9 0 7 0;
#X connect 10 0 9 0;
#X connect 10 1 32 0;
#X connect 12 0 11 0;
#X connect 12 1 11 1;
#X connect 12 2 13 0;
#X connect 13 0 28 0;
#X connect 14 0 12 0;
#X connect 15 0 14 0;
#X connect 15 1 33 0;
#X connect 17 0 16 0;
#X connect 17 1 16 1;
#X connect 17 2 18 0;
#X connect 18 0 29 0;
#X connect 19 0 17 0;
#X connect 20 0 19 0;
#X connect 20 1 34 0;
#X connect 22 0 21 0;
#X connect 22 1 21 1;
#X connect 22 2 23 0;
#X connect 23 0 30 0;
#X connect 24 0 22 0;
#X connect 25 0 24 0;
#X connect 25 1 35 0;
#X connect 31 0 2 0;
#X connect 32 0 7 0;
#X connect 33 0 12 0;
#X connect 34 0 17 0;
#X connect 35 0 22 0;
#X connect 36 0 5 0;
#X connect 36 1 10 0;
#X connect 36 2 15 0;
#X connect 36 3 20 0;
#X connect 36 4 25 0;
#X connect 37 0 36 0;
#X restore 536 177 pd UN...YÉ;
#N canvas 138 91 1302 781 IS...MA 1;
#X obj 505 122 inlet;
#X obj 436 300 dac~;
#X obj 425 242 readsf~ 2 44100;
#X obj 512 265 bng 15 250 50 0 empty empty empty 17 7 0 10 #fcfcfc
#000000 #000000;
#X msg 460 206 1;
#X obj 418 164 t b b;
#X obj 536 298 dac~;
#X obj 525 240 readsf~ 2 44100;
#X obj 612 263 bng 15 250 50 0 empty empty empty 17 7 0 10 #fcfcfc
#000000 #000000;
#X msg 570 210 1;
#X obj 560 176 t b b;
#X obj 637 296 dac~;
#X obj 626 238 readsf~ 2 44100;
#X obj 713 261 bng 15 250 50 0 empty empty empty 17 7 0 10 #fcfcfc
#000000 #000000;
#X msg 671 208 1;
#X obj 661 174 t b b;
#X obj 739 295 dac~;
#X obj 728 237 readsf~ 2 44100;
#X obj 815 260 bng 15 250 50 0 empty empty empty 17 7 0 10 #fcfcfc
#000000 #000000;
#X msg 773 207 1;
#X obj 763 173 t b b;
#X obj 841 294 dac~;
#X obj 830 236 readsf~ 2 44100;
#X obj 917 259 bng 15 250 50 0 empty empty empty 17 7 0 10 #fcfcfc
#000000 #000000;
#X msg 905 206 1, f 4;
#X obj 865 172 t b b;
#X obj 457 421 dac~;
#X obj 446 363 readsf~ 2 44100;
#X obj 533 386 bng 15 250 50 0 empty empty empty 17 7 0 10 #fcfcfc
#000000 #000000;
#X msg 499 331 1;
#X obj 481 299 t b b;
#X obj 557 419 dac~;
#X obj 546 361 readsf~ 2 44100;
#X obj 633 384 bng 15 250 50 0 empty empty empty 17 7 0 10 #fcfcfc
#000000 #000000;
#X msg 601 332 1;
#X obj 581 297 t b b;
#X obj 658 417 dac~;
#X obj 647 359 readsf~ 2 44100;
#X obj 734 382 bng 15 250 50 0 empty empty empty 17 7 0 10 #fcfcfc
#000000 #000000;
#X msg 703 329 1;
#X obj 682 295 t b b;
#X obj 760 416 dac~;
#X obj 749 358 readsf~ 2 44100;
#X obj 836 381 bng 15 250 50 0 empty empty empty 17 7 0 10 #fcfcfc
#000000 #000000;
#X msg 806 326 1;
#X obj 784 294 t b b;
#X obj 862 415 dac~;
#X obj 851 357 readsf~ 2 44100;
#X obj 938 380 bng 15 250 50 0 empty empty empty 17 7 0 10 #fcfcfc
#000000 #000000;
#X msg 922 328 1;
#X obj 886 293 t b b;
#X obj 466 271 s fin;
#X obj 571 267 s fin;
#X obj 672 269 s fin;
#X obj 773 269 s fin;
#X obj 876 266 s fin;
#X obj 495 399 s fin;
#X obj 590 397 s fin;
#X obj 691 395 s fin;
#X obj 793 399 s fin;
#X obj 896 394 s fin;
#X msg 372 205 open IS.wav;
#X msg 502 210 open L'.wav;
#X msg 603 208 open LA.wav;
#X msg 705 207 open LAIT.wav;
#X msg 807 206 open LAR.wav;
#X msg 423 333 open LE.wav;
#X msg 523 331 open LES.wav;
#X msg 624 329 open LI.wav;
#X msg 726 328 open LO.wav;
#X msg 828 327 open MA.wav;
#X obj 549 121 route IS L' LA LAIT LAR LE LES LI LO MA;
#X connect 0 0 71 0;
#X connect 2 0 1 0;
#X connect 2 1 1 1;
#X connect 2 2 3 0;
#X connect 3 0 51 0;
#X connect 4 0 2 0;
#X connect 5 0 4 0;
#X connect 5 1 61 0;
#X connect 7 0 6 0;
#X connect 7 1 6 1;
#X connect 7 2 8 0;
#X connect 8 0 52 0;
#X connect 9 0 7 0;
#X connect 10 0 9 0;
#X connect 10 1 62 0;
#X connect 12 0 11 0;
#X connect 12 1 11 1;
#X connect 12 2 13 0;
#X connect 13 0 53 0;
#X connect 14 0 12 0;
#X connect 15 0 14 0;
#X connect 15 1 63 0;
#X connect 17 0 16 0;
#X connect 17 1 16 1;
#X connect 17 2 18 0;
#X connect 18 0 54 0;
#X connect 19 0 17 0;
#X connect 20 0 19 0;
#X connect 20 1 64 0;
#X connect 22 0 21 0;
#X connect 22 1 21 1;
#X connect 22 2 23 0;
#X connect 23 0 55 0;
#X connect 24 0 22 0;
#X connect 25 0 24 0;
#X connect 25 1 65 0;
#X connect 27 0 26 0;
#X connect 27 1 26 1;
#X connect 27 2 28 0;
#X connect 28 0 56 0;
#X connect 29 0 27 0;
#X connect 30 0 29 0;
#X connect 30 1 66 0;
#X connect 32 0 31 0;
#X connect 32 1 31 1;
#X connect 32 2 33 0;
#X connect 33 0 57 0;
#X connect 34 0 32 0;
#X connect 35 0 34 0;
#X connect 35 1 67 0;
#X connect 37 0 36 0;
#X connect 37 1 36 1;
#X connect 37 2 38 0;
#X connect 38 0 58 0;
#X connect 39 0 37 0;
#X connect 40 0 39 0;
#X connect 40 1 68 0;
#X connect 42 0 41 0;
#X connect 42 1 41 1;
#X connect 42 2 43 0;
#X connect 43 0 59 0;
#X connect 44 0 42 0;
#X connect 45 0 44 0;
#X connect 45 1 69 0;
#X connect 47 0 46 0;
#X connect 47 1 46 1;
#X connect 47 2 48 0;
#X connect 48 0 60 0;
#X connect 49 0 47 0;
#X connect 50 0 49 0;
#X connect 50 1 70 0;
#X connect 61 0 2 0;
#X connect 62 0 7 0;
#X connect 63 0 12 0;
#X connect 64 0 17 0;
#X connect 65 0 22 0;
#X connect 66 0 27 0;
#X connect 67 0 32 0;
#X connect 68 0 37 0;
#X connect 69 0 42 0;
#X connect 70 0 47 0;
#X connect 71 0 5 0;
#X connect 71 1 10 0;
#X connect 71 2 15 0;
#X connect 71 3 20 0;
#X connect 71 4 25 0;
#X connect 71 5 30 0;
#X connect 71 6 35 0;
#X connect 71 7 40 0;
#X connect 71 8 45 0;
#X connect 71 9 50 0;
#X restore 526 121 pd IS...MA;
#X obj 381 72 inlet;
#X connect 14 0 0 0;
#X connect 14 0 1 0;
#X connect 14 0 2 0;
#X connect 14 0 3 0;
#X connect 14 0 4 0;
#X connect 14 0 5 0;
#X connect 14 0 13 0;
#X connect 14 0 12 0;
#X connect 14 0 9 0;
#X connect 14 0 11 0;
#X connect 14 0 7 0;
#X connect 14 0 8 0;
#X connect 14 0 6 0;
#X connect 14 0 10 0;
#X coords 0 528 1 527 264 58 0;
#X restore 560 190 pd legrosprogramme;
#X msg 18 177 A;
#X msg 51 176 AB;
#X msg 84 176 AIENT;
#X msg 128 175 AIR;
#X msg 159 176 AM;
#X msg 190 177 AN;
#X msg 223 176 ANT;
#X msg 254 173 AR;
#X msg 286 178 AU;
#X msg 323 177 BA;
#X msg 355 178 BI;
#X msg 389 179 BLE;
#X msg 428 177 BOU;
#X msg 464 180 BRA;
#X msg 16 200 BRAN;
#X msg 54 200 BU;
#X msg 84 201 C';
#X msg 121 202 CA;
#X msg 158 204 ÇA;
#X msg 192 204 CAL;
#X msg 227 203 CAR;
#X msg 264 204 CÉ;
#X msg 301 204 CHI;
#X msg 338 207 CI;
#X msg 373 206 COM;
#X msg 406 206 CON;
#X msg 440 208 COU;
#X msg 20 237 CTI;
#X msg 55 234 D';
#X msg 92 233 DA;
#X msg 129 233 DAN;
#X msg 167 231 DE;
#X msg 202 232 DÉ;
#X msg 238 231 DES;
#X msg 273 232 DÉS;
#X msg 312 231 DOI;
#X msg 343 232 É;
#X msg 379 234 EN;
#X msg 417 238 ÉP;
#X msg 447 236 ÉS;
#X msg 477 237 ET;
#X msg 19 270 ÉT;
#X msg 53 269 ÉV;
#X msg 86 270 EX;
#X msg 118 269 FI;
#X msg 150 268 FIX;
#X msg 183 270 FLUI;
#X msg 224 268 FON;
#X msg 259 267 GA;
#X msg 291 269 GE;
#X msg 325 266 GEAIT;
#X msg 370 266 GEN;
#X msg 404 265 GI;
#X msg 438 263 GRAN;
#X msg 477 264 HIS;
#X msg 15 302 ID;
#X msg 55 302 IÈRE;
#X msg 98 301 IL;
#X msg 133 302 IM;
#X msg 170 303 IS;
#X msg 201 302 L';
#X msg 232 302 LA;
#X msg 264 303 LAIT, f 5;
#X msg 310 303 LAR;
#X msg 340 304 LE;
#X msg 371 306 LES;
#X msg 407 304 LI;
#X msg 442 305 LO;
#X msg 473 305 MA;
#X msg 18 340 MAIT;
#X msg 57 340 MAN;
#X msg 89 339 ME;
#X msg 122 338 MENT;
#X msg 158 338 MOU;
#X msg 192 337 N';
#X msg 225 336 NA;
#X msg 260 336 NE;
#X msg 296 336 NI;
#X msg 330 337 ON;
#X msg 362 338 OR, f 2;
#X msg 392 337 OU;
#X msg 423 336 OUX;
#X msg 456 338 PA;
#X msg 487 339 PACT;
#X msg 22 369 PAR;
#X msg 51 370 PER;
#X msg 81 371 PEU;
#X msg 113 371 PLA;
#X msg 142 370 PLE;
#X msg 171 370 PLI;
#X msg 201 369 PLU;
#X msg 232 368 PO;
#X msg 297 367 PRI;
#X msg 326 367 PUL;
#X msg 361 366 QU';
#X msg 392 366 QUE;
#X msg 425 368 QUI;
#X msg 458 369 RA;
#X msg 26 402 REL;
#X msg 56 402 RES;
#X msg 85 401 RU;
#X msg 115 402 RY;
#X msg 145 399 S;
#X msg 176 401 SA;
#X msg 206 401 SAN;
#X msg 238 402 SÉ;
#X msg 268 402 SES;
#X msg 299 402 SIM, f 4;
#X msg 338 403 SION;
#X msg 375 402 SOL;
#X msg 404 400 SON;
#X msg 435 400 STE;
#X msg 465 399 SUR;
#X msg 20 428 TAIT;
#X msg 56 428 TAN;
#X msg 86 428 TE;
#X msg 119 426 TES;
#X msg 152 427 THME;
#X msg 192 428 TI;
#X msg 225 428 TOI;
#X msg 257 427 TOT;
#X msg 289 427 TOUT;
#X msg 332 425 TRAN;
#X msg 368 426 TRE;
#X msg 401 426 TRÈS;
#X msg 439 426 TU;
#X msg 473 426 TUR;
#X msg 508 427 UN;
#X msg 102 452 VE;
#X msg 146 456 VER;
#X msg 180 456 VO;
#X msg 221 455 YÉ;
#X msg 480 211 CRÉ;
#X msg 266 369 PRÉ;
#X connect 1 0 0 0;
#X connect 2 0 0 0;
#X connect 3 0 0 0;
#X connect 4 0 0 0;
#X connect 5 0 0 0;
#X connect 6 0 0 0;
#X connect 7 0 0 0;
#X connect 8 0 0 0;
#X connect 9 0 0 0;
#X connect 10 0 0 0;
#X connect 11 0 0 0;
#X connect 12 0 0 0;
#X connect 13 0 0 0;
#X connect 14 0 0 0;
#X connect 15 0 0 0;
#X connect 16 0 0 0;
#X connect 17 0 0 0;
#X connect 18 0 0 0;
#X connect 19 0 0 0;
#X connect 20 0 0 0;
#X connect 21 0 0 0;
#X connect 22 0 0 0;
#X connect 23 0 0 0;
#X connect 24 0 0 0;
#X connect 25 0 0 0;
#X connect 26 0 0 0;
#X connect 27 0 0 0;
#X connect 28 0 0 0;
#X connect 29 0 0 0;
#X connect 30 0 0 0;
#X connect 31 0 0 0;
#X connect 32 0 0 0;
#X connect 33 0 0 0;
#X connect 34 0 0 0;
#X connect 35 0 0 0;
#X connect 36 0 0 0;
#X connect 37 0 0 0;
#X connect 38 0 0 0;
#X connect 39 0 0 0;
#X connect 40 0 0 0;
#X connect 41 0 0 0;
#X connect 42 0 0 0;
#X connect 43 0 0 0;
#X connect 44 0 0 0;
#X connect 45 0 0 0;
#X connect 46 0 0 0;
#X connect 47 0 0 0;
#X connect 48 0 0 0;
#X connect 49 0 0 0;
#X connect 50 0 0 0;
#X connect 51 0 0 0;
#X connect 52 0 0 0;
#X connect 53 0 0 0;
#X connect 54 0 0 0;
#X connect 55 0 0 0;
#X connect 56 0 0 0;
#X connect 57 0 0 0;
#X connect 58 0 0 0;
#X connect 59 0 0 0;
#X connect 60 0 0 0;
#X connect 61 0 0 0;
#X connect 62 0 0 0;
#X connect 63 0 0 0;
#X connect 64 0 0 0;
#X connect 65 0 0 0;
#X connect 66 0 0 0;
#X connect 67 0 0 0;
#X connect 68 0 0 0;
#X connect 69 0 0 0;
#X connect 70 0 0 0;
#X connect 71 0 0 0;
#X connect 72 0 0 0;
#X connect 73 0 0 0;
#X connect 74 0 0 0;
#X connect 75 0 0 0;
#X connect 76 0 0 0;
#X connect 77 0 0 0;
#X connect 78 0 0 0;
#X connect 79 0 0 0;
#X connect 80 0 0 0;
#X connect 81 0 0 0;
#X connect 82 0 0 0;
#X connect 83 0 0 0;
#X connect 84 0 0 0;
#X connect 85 0 0 0;
#X connect 86 0 0 0;
#X connect 87 0 0 0;
#X connect 88 0 0 0;
#X connect 89 0 0 0;
#X connect 90 0 0 0;
#X connect 91 0 0 0;
#X connect 92 0 0 0;
#X connect 93 0 0 0;
#X connect 94 0 0 0;
#X connect 95 0 0 0;
#X connect 96 0 0 0;
#X connect 97 0 0 0;
#X connect 98 0 0 0;
#X connect 99 0 0 0;
#X connect 100 0 0 0;
#X connect 101 0 0 0;
#X connect 102 0 0 0;
#X connect 103 0 0 0;
#X connect 104 0 0 0;
#X connect 105 0 0 0;
#X connect 106 0 0 0;
#X connect 107 0 0 0;
#X connect 108 0 0 0;
#X connect 109 0 0 0;
#X connect 110 0 0 0;
#X connect 111 0 0 0;
#X connect 112 0 0 0;
#X connect 113 0 0 0;
#X connect 114 0 0 0;
#X connect 115 0 0 0;
#X connect 116 0 0 0;
#X connect 117 0 0 0;
#X connect 118 0 0 0;
#X connect 119 0 0 0;
#X connect 120 0 0 0;
#X connect 121 0 0 0;
#X connect 122 0 0 0;
#X connect 123 0 0 0;
#X connect 124 0 0 0;
#X connect 125 0 0 0;
#X connect 126 0 0 0;
#X connect 127 0 0 0;
#X connect 128 0 0 0;
#X connect 129 0 0 0;
#X connect 130 0 0 0;
#X connect 131 0 0 0;
#X connect 132 0 0 0;
#X connect 133 0 0 0;
#X connect 134 0 0 0;
#X coords 0 515 1 514 535 418 0;
#X restore 202 186 pd jujenerator;
